<?xml version="1.0" standalone="no"?>
<!DOCTYPE svg PUBLIC "-//W3C//DTD SVG 20010904//EN"
 "http://www.w3.org/TR/2001/REC-SVG-20010904/DTD/svg10.dtd">
<svg version="1.0" xmlns="http://www.w3.org/2000/svg"
 width="1890.000000pt" height="1890.000000pt" viewBox="0 0 1890.000000 1890.000000"
 preserveAspectRatio="xMidYMid meet">
<metadata>
Created by potrace 1.14, written by Peter Selinger 2001-2017
</metadata>
<g transform="translate(0.000000,1890.000000) scale(0.100000,-0.100000)"
fill="#000000" stroke="none">
<path d="M7520 13268 c0 -49 -11 -375 -28 -833 l-7 -180 -323 -3 -324 -2 -61
-47 c-34 -26 -64 -50 -67 -53 -5 -5 -114 -99 -160 -137 -14 -12 -95 -81 -181
-155 -221 -189 -289 -245 -859 -702 -102 -82 -203 -164 -226 -182 -23 -18
-119 -93 -214 -165 -171 -130 -184 -140 -244 -189 -17 -15 -71 -57 -121 -95
-49 -38 -142 -112 -205 -163 -135 -110 -197 -160 -340 -274 -58 -45 -155 -126
-216 -178 -62 -52 -147 -124 -190 -160 -134 -109 -541 -455 -554 -469 -3 -3
-41 -37 -85 -76 -44 -38 -87 -75 -95 -82 -8 -8 -28 -24 -44 -37 -16 -14 -24
-26 -18 -30 6 -3 16 -1 24 6 7 7 40 31 73 53 33 22 139 98 236 170 187 138
415 304 564 410 228 162 394 284 970 710 277 205 461 339 590 430 47 33 117
83 155 110 38 28 137 97 220 155 83 58 177 123 208 146 200 142 193 139 405
189 120 28 334 67 617 111 532 83 1250 62 2085 -61 335 -49 351 -52 590 -92
83 -14 173 -29 200 -33 28 -4 73 -12 100 -19 28 -6 106 -23 175 -37 142 -29
236 -49 330 -70 36 -8 85 -19 110 -24 25 -4 72 -16 105 -24 109 -29 134 -24
295 59 80 41 210 107 290 147 80 40 147 73 148 74 2 2 0 10 -6 19 -9 16 -120
57 -412 149 -157 49 -196 61 -260 79 -30 9 -102 30 -160 46 -139 41 -197 57
-245 70 -81 21 -74 -4 -110 406 -8 94 -22 244 -31 335 -9 91 -19 197 -23 237
-7 73 -15 94 -30 77 -11 -11 -29 -255 -36 -479 -8 -253 -27 -484 -41 -496 -8
-6 -57 1 -150 21 -195 44 -392 84 -489 100 -33 5 -91 16 -130 24 -165 34 -597
93 -890 121 -88 8 -227 22 -310 30 -82 8 -209 18 -281 21 -78 4 -138 12 -148
19 -17 13 -26 75 -56 365 -6 52 -13 106 -16 120 -6 28 -28 213 -45 390 -11
114 -32 200 -50 200 -5 0 -9 -24 -9 -52z"/>
<path d="M5760 12809 c-80 -10 -163 -22 -185 -27 -204 -47 -331 -123 -356
-215 -7 -26 -9 -207 -7 -539 3 -435 1 -500 -12 -508 -8 -5 -86 -10 -172 -10
-292 0 -563 -63 -665 -154 l-23 -19 0 -464 c0 -396 2 -464 14 -461 8 2 45 30
82 63 73 65 306 275 314 284 3 4 48 44 100 91 52 47 106 96 120 110 14 14 73
67 130 119 58 52 172 158 254 235 82 78 193 182 245 231 53 50 136 128 185
175 50 47 102 96 117 110 23 21 206 199 737 715 62 61 117 112 123 113 5 2 9
14 9 26 0 31 -31 43 -235 92 -98 24 -173 33 -356 44 -218 12 -242 12 -419 -11z"/>
<path d="M16680 12522 c-127 -1 -217 -6 -220 -12 -4 -6 -78 -14 -166 -19 -87
-5 -177 -14 -199 -20 -22 -6 -72 -11 -111 -11 -39 0 -91 -7 -114 -15 -23 -8
-67 -15 -97 -15 -30 0 -78 -6 -106 -14 -29 -8 -86 -17 -127 -21 -41 -4 -79
-10 -85 -15 -5 -4 -40 -10 -78 -13 -37 -2 -73 -9 -80 -14 -6 -6 -45 -13 -86
-17 -41 -3 -79 -10 -85 -15 -6 -5 -38 -12 -71 -16 -33 -4 -68 -12 -79 -17 -10
-5 -42 -11 -72 -13 -29 -2 -63 -10 -76 -19 -13 -10 -43 -16 -74 -16 -37 0 -54
-4 -58 -15 -4 -11 -22 -15 -68 -15 -39 -1 -70 -6 -82 -15 -11 -8 -36 -15 -56
-15 -20 0 -45 -7 -56 -15 -11 -8 -41 -14 -72 -15 -37 0 -54 -4 -58 -15 -4 -10
-20 -15 -51 -15 -28 0 -50 -6 -57 -15 -6 -8 -31 -15 -59 -16 -26 -2 -53 -9
-59 -16 -6 -7 -29 -13 -52 -13 -46 0 -59 -7 -69 -32 -7 -19 -27 -25 -27 -8 0
16 -56 12 -70 -5 -7 -8 -27 -15 -44 -15 -17 0 -44 -7 -61 -16 -16 -8 -51 -18
-77 -21 -27 -3 -48 -11 -48 -17 0 -6 -16 -12 -36 -13 -19 -1 -41 -6 -47 -11
-7 -5 -32 -13 -57 -17 -25 -4 -54 -14 -65 -21 -11 -8 -34 -14 -51 -14 -19 0
-34 -6 -38 -15 -3 -10 -19 -15 -44 -15 -23 0 -45 -6 -52 -15 -7 -8 -27 -15
-45 -15 -20 0 -35 -6 -39 -15 -3 -10 -19 -15 -45 -15 -22 0 -41 -5 -43 -11 -2
-5 -23 -13 -47 -16 -23 -3 -45 -12 -48 -19 -3 -9 -21 -14 -48 -14 -34 0 -44
-4 -48 -20 -4 -16 -11 -18 -41 -13 -27 4 -37 2 -42 -11 -4 -9 -17 -16 -34 -16
-15 0 -39 -9 -54 -21 -16 -13 -35 -19 -47 -16 -12 3 -22 0 -25 -8 -3 -7 -21
-16 -41 -20 -19 -3 -43 -10 -52 -14 -50 -25 -89 -40 -113 -45 -16 -4 -28 -11
-28 -16 0 -6 -8 -10 -18 -10 -10 0 -35 -9 -57 -20 -22 -11 -47 -20 -56 -20 -9
0 -24 -9 -33 -19 -10 -11 -25 -17 -36 -14 -10 3 -29 -2 -42 -11 -12 -9 -30
-16 -39 -16 -9 0 -22 -7 -29 -15 -7 -8 -25 -15 -40 -15 -16 0 -30 -7 -34 -15
-3 -9 -18 -15 -34 -15 -16 0 -35 -7 -42 -15 -7 -8 -20 -15 -29 -15 -9 0 -26
-6 -37 -14 -11 -8 -47 -24 -80 -35 -40 -13 -59 -25 -58 -36 1 -11 -9 -15 -42
-15 -24 0 -44 -4 -44 -10 0 -5 -9 -10 -20 -10 -11 0 -28 -9 -37 -20 -10 -11
-28 -20 -40 -20 -13 0 -23 -4 -23 -10 0 -5 -15 -12 -34 -16 -19 -3 -37 -12
-40 -20 -3 -8 -16 -14 -29 -14 -14 0 -30 -7 -37 -15 -7 -8 -23 -15 -35 -15
-12 0 -28 -7 -35 -15 -7 -8 -20 -15 -29 -15 -9 0 -25 -7 -35 -15 -11 -8 -27
-15 -37 -15 -9 0 -22 -7 -29 -15 -7 -8 -24 -15 -37 -15 -31 0 -26 -22 8 -30
l24 -6 -27 -6 c-16 -3 -28 -1 -28 3 0 16 -58 10 -64 -6 -3 -8 -14 -15 -24 -15
-10 0 -27 -7 -38 -15 -10 -8 -27 -15 -37 -15 -10 0 -20 -7 -23 -15 -4 -8 -10
-15 -16 -15 -15 0 -117 -50 -123 -61 -4 -5 -17 -9 -31 -9 -13 0 -24 -4 -24 -9
0 -5 -10 -13 -22 -16 -36 -11 -107 -46 -114 -56 -3 -5 -13 -9 -23 -9 -10 0
-24 -7 -31 -15 -7 -8 -19 -15 -27 -15 -8 0 -21 -7 -29 -15 -9 -8 -24 -15 -35
-15 -11 0 -27 -7 -35 -15 -9 -8 -24 -15 -33 -15 -10 0 -24 -7 -31 -15 -7 -8
-21 -15 -31 -15 -10 0 -20 -4 -23 -9 -7 -10 -78 -45 -113 -56 -13 -3 -23 -11
-23 -16 0 -5 -7 -9 -16 -9 -9 0 -42 -16 -74 -35 -32 -19 -67 -35 -79 -35 -11
0 -21 -4 -21 -10 0 -5 -12 -13 -27 -16 -15 -4 -34 -13 -41 -21 -7 -7 -22 -13
-32 -13 -10 0 -20 -7 -24 -15 -3 -8 -14 -15 -24 -15 -11 0 -25 -7 -32 -15 -7
-8 -23 -15 -35 -15 -13 0 -25 -7 -29 -15 -3 -9 -18 -15 -36 -15 -20 0 -30 -5
-30 -15 0 -9 -9 -15 -25 -15 -14 0 -28 -7 -31 -15 -4 -8 -15 -15 -25 -15 -11
0 -22 -7 -25 -15 -4 -9 -19 -15 -35 -15 -17 0 -32 -6 -35 -15 -4 -8 -14 -15
-23 -15 -9 -1 -34 -12 -56 -25 -22 -13 -60 -33 -85 -45 -25 -12 -52 -26 -60
-31 -8 -5 -27 -14 -42 -20 -16 -6 -28 -15 -28 -20 0 -5 -5 -9 -11 -9 -18 0
-103 -44 -112 -57 -4 -7 -19 -13 -32 -13 -14 0 -25 -4 -25 -10 0 -5 -12 -13
-27 -16 -15 -4 -34 -13 -41 -21 -7 -7 -22 -13 -33 -13 -11 0 -22 -7 -25 -15
-4 -8 -14 -15 -24 -15 -23 0 -82 -31 -93 -47 -4 -7 -19 -13 -32 -13 -27 0 -32
-9 -14 -27 8 -8 7 -13 -2 -19 -7 -4 -14 -3 -17 4 -5 17 -52 15 -58 -3 -4 -8
-14 -15 -24 -15 -10 0 -25 -6 -32 -14 -8 -7 -25 -17 -38 -21 -14 -4 -27 -10
-30 -14 -10 -12 -89 -51 -104 -51 -9 0 -16 -4 -16 -8 0 -4 -27 -20 -60 -35
-32 -15 -62 -32 -65 -37 -3 -6 -14 -10 -25 -10 -10 0 -20 -7 -24 -15 -3 -8
-17 -15 -31 -15 -14 0 -25 -4 -25 -10 0 -5 -11 -12 -25 -16 -13 -3 -29 -12
-36 -20 -6 -8 -22 -14 -35 -14 -13 0 -24 -4 -24 -10 0 -5 -11 -12 -24 -16 -14
-3 -27 -12 -30 -20 -3 -8 -16 -14 -29 -14 -14 0 -30 -7 -37 -15 -7 -8 -21 -15
-31 -15 -10 0 -20 -4 -23 -9 -3 -4 -32 -21 -63 -37 -32 -16 -59 -32 -61 -36
-2 -5 -9 -8 -15 -8 -15 1 -157 -71 -175 -87 -7 -7 -19 -13 -26 -13 -8 0 -19
-7 -26 -15 -7 -8 -20 -15 -30 -15 -10 0 -23 -7 -30 -15 -7 -8 -20 -15 -30 -15
-10 0 -21 -7 -24 -15 -4 -12 -11 -13 -23 -7 -23 12 -22 12 -190 -69 -78 -38
-168 -81 -200 -95 -32 -15 -105 -49 -163 -76 -243 -115 -415 -186 -690 -282
-69 -25 -183 -66 -255 -91 -205 -74 -225 -79 -241 -64 -11 12 -11 38 1 164 8
83 19 170 25 195 5 25 12 65 15 90 14 104 74 334 123 470 68 191 197 457 299
613 72 111 59 158 -32 117 -58 -26 -246 -120 -355 -178 -41 -22 -94 -50 -116
-62 -23 -11 -89 -47 -147 -80 -59 -32 -143 -78 -189 -103 -102 -54 -175 -94
-353 -191 -76 -42 -140 -76 -143 -76 -2 0 -30 -15 -61 -34 -53 -32 -95 -55
-221 -123 -30 -17 -79 -44 -108 -62 -29 -17 -55 -31 -57 -31 -2 0 -49 -27
-105 -60 -56 -33 -103 -60 -105 -60 -2 0 -26 -13 -53 -29 -49 -29 -111 -64
-192 -109 -25 -13 -52 -30 -60 -36 -8 -7 -33 -21 -55 -31 -22 -11 -42 -23 -45
-26 -5 -6 -17 -12 -107 -59 -26 -14 -54 -31 -61 -37 -7 -7 -22 -13 -33 -13
-10 0 -19 -4 -19 -10 0 -5 -10 -10 -22 -9 l-23 0 23 9 c12 5 22 13 22 17 0 4
23 22 50 38 27 17 50 33 50 38 0 4 4 7 8 7 5 0 93 55 195 123 102 67 215 140
249 161 35 22 140 90 233 151 94 61 193 125 220 142 203 127 292 181 328 202
23 13 71 43 107 66 78 51 389 235 396 235 3 0 17 8 32 19 34 23 270 160 354
205 35 18 99 53 143 76 127 68 431 220 441 220 5 0 20 6 34 13 88 45 321 71
328 37 3 -15 -141 -263 -240 -415 -112 -172 -266 -488 -308 -630 -38 -132 -52
-202 -57 -296 -7 -128 -2 -155 32 -163 29 -7 134 8 215 31 220 62 249 76 1220
575 96 50 234 121 305 158 310 161 430 223 760 390 193 98 422 215 510 260 88
45 437 222 775 393 338 171 629 317 645 325 39 20 58 44 42 54 -7 3 -61 16
-122 27 -60 12 -128 26 -150 31 -22 5 -92 19 -155 30 -63 11 -137 25 -165 30
-27 6 -81 15 -120 21 -38 5 -113 17 -165 25 -52 8 -142 21 -200 29 -58 8 -132
18 -165 24 -59 9 -197 27 -440 56 -117 14 -330 34 -605 56 -215 17 -594 19
-810 3 -342 -24 -809 -84 -930 -119 -25 -7 -61 -16 -80 -20 -65 -13 -185 -57
-250 -92 -63 -34 -372 -238 -495 -326 -33 -24 -130 -91 -215 -148 -85 -58
-191 -130 -235 -161 -152 -104 -343 -234 -387 -263 -9 -5 -164 -109 -344 -230
-181 -121 -337 -224 -346 -230 -9 -5 -110 -73 -224 -150 -113 -77 -217 -147
-230 -155 -12 -8 -67 -46 -121 -84 -54 -38 -147 -103 -208 -144 -136 -93 -169
-116 -175 -122 -8 -8 -67 -49 -185 -129 -193 -131 -219 -149 -247 -173 l-27
-23 -5 -245 c-2 -135 -9 -288 -15 -340 -37 -299 -58 -437 -104 -663 -21 -103
-32 -99 228 -82 410 25 830 78 1115 140 36 8 92 19 125 25 33 5 89 17 125 25
36 8 90 20 120 26 30 5 69 14 85 19 17 6 68 19 115 30 47 11 108 26 135 34 28
8 75 22 105 30 265 73 774 242 925 307 11 4 97 38 190 74 153 60 307 122 360
145 11 5 61 25 110 45 50 21 106 44 125 52 19 8 44 18 55 23 11 4 74 31 140
58 66 28 163 68 215 88 52 20 102 40 110 45 29 15 326 137 379 155 29 11 70
34 89 52 20 17 45 32 56 32 12 0 30 7 40 15 11 8 30 15 43 15 13 0 23 4 23 10
0 5 16 12 35 16 20 3 35 12 35 20 0 9 12 14 34 14 21 0 36 6 40 15 3 9 18 15
40 15 21 0 36 6 40 15 3 9 18 15 34 15 16 0 35 7 42 15 7 8 23 15 35 15 12 0
28 7 35 15 7 8 23 15 35 15 12 0 28 7 35 15 7 8 23 15 36 15 12 0 29 7 38 15
8 8 21 15 28 15 7 0 22 6 33 14 11 7 35 17 54 21 19 4 41 14 49 21 7 8 22 14
32 14 10 0 21 4 25 9 3 5 18 12 34 16 16 3 35 13 42 21 6 8 23 14 38 14 14 0
35 7 45 15 11 8 29 15 40 15 12 0 30 7 40 15 11 8 30 15 42 15 12 0 24 7 28
15 3 8 18 15 33 15 15 0 37 7 47 15 11 8 27 15 37 15 9 0 22 7 29 15 7 8 25
15 40 15 16 0 30 7 34 15 3 9 18 15 34 15 16 0 35 7 42 15 7 8 21 15 32 15 11
0 32 6 46 13 57 29 98 47 125 53 15 3 27 10 27 15 0 5 8 9 18 9 9 1 35 9 57
20 22 11 48 19 58 20 9 0 17 5 17 10 0 6 7 10 16 10 9 0 35 9 58 19 23 11 59
27 81 36 22 9 52 23 67 31 14 7 36 14 48 14 12 0 28 7 36 15 9 8 26 15 40 15
13 0 24 4 24 10 0 5 17 12 37 16 21 4 44 13 51 21 7 7 22 13 31 13 10 0 24 7
31 15 7 8 26 15 42 15 16 0 36 7 44 15 9 8 28 15 44 15 16 0 30 7 34 15 3 8
14 15 23 15 10 0 27 6 38 14 11 7 35 17 53 21 17 3 32 10 32 15 0 4 16 11 35
14 19 4 35 11 35 16 0 6 8 10 18 10 9 0 30 7 45 15 15 8 43 17 62 21 19 3 35
10 35 15 0 4 16 11 35 15 19 3 35 10 35 15 0 4 17 11 37 15 21 4 44 13 51 21
7 7 24 13 37 13 12 0 25 7 29 15 3 9 18 15 39 15 19 0 40 7 47 15 7 8 23 15
35 15 13 0 25 7 29 15 3 9 18 15 38 15 18 0 42 7 52 15 11 8 30 15 43 15 13 0
26 7 29 15 4 8 18 15 33 15 15 0 36 7 47 15 10 8 28 15 39 15 11 0 34 9 50 20
17 11 37 20 46 20 9 0 30 7 45 15 16 8 36 15 44 15 8 0 24 7 34 15 11 8 32 15
48 15 15 0 28 4 28 9 0 8 70 37 120 48 14 3 34 12 45 19 11 8 32 14 48 14 15
0 30 7 33 15 4 9 19 15 39 15 18 0 38 7 45 15 7 8 25 15 40 15 15 0 33 7 40
15 7 8 25 15 39 15 15 0 36 7 47 15 10 8 33 15 50 15 19 0 34 6 38 15 3 8 15
15 27 15 11 0 37 7 57 16 86 37 99 42 132 49 19 4 40 11 45 15 6 4 26 11 45
15 19 4 40 11 45 15 6 4 27 10 48 14 20 4 37 11 37 15 0 5 20 12 45 15 25 4
45 11 45 16 0 5 17 12 38 15 20 4 51 13 69 21 17 8 42 14 56 14 14 0 27 7 31
15 3 9 18 15 35 15 16 0 42 7 57 15 16 8 39 15 52 15 13 0 30 7 38 15 9 8 28
15 43 15 15 0 31 4 36 8 16 14 139 52 167 52 14 0 31 7 38 15 7 8 27 15 44 15
17 0 44 7 60 15 15 8 43 15 61 15 18 0 38 6 44 14 6 8 31 17 55 20 24 4 52 16
61 26 13 14 22 17 31 10 13 -12 65 -3 76 13 3 6 31 12 62 15 32 2 56 9 56 16
0 6 19 12 46 13 25 1 51 6 58 12 7 6 35 14 62 17 27 4 58 13 69 20 11 8 35 14
55 14 19 0 44 7 54 15 11 8 41 15 67 15 27 0 49 5 51 12 2 6 31 13 66 16 34 2
62 8 62 13 0 4 21 11 48 14 26 4 66 13 90 21 23 8 57 14 75 14 18 0 41 6 52
14 11 7 49 16 85 20 36 3 67 11 68 16 2 6 30 10 62 10 39 0 64 5 74 15 9 10
34 15 73 15 32 0 70 6 84 14 14 7 64 16 110 20 46 4 89 12 95 17 5 4 39 11 75
15 77 7 89 9 109 18 9 3 60 11 115 16 55 5 125 13 155 19 30 5 79 10 108 10
29 1 63 6 74 12 11 6 77 13 147 15 69 3 146 10 171 17 62 17 990 17 1011 1 8
-7 58 -14 111 -18 53 -3 105 -10 115 -15 10 -6 44 -13 75 -16 32 -4 60 -11 63
-16 4 -5 22 -9 42 -9 19 0 49 -6 66 -13 18 -8 59 -22 92 -32 76 -23 228 -86
236 -98 6 -9 39 -29 74 -45 11 -6 33 -22 48 -36 15 -14 32 -26 37 -26 4 0 20
-13 33 -30 14 -16 30 -30 36 -30 16 0 51 33 51 47 0 7 4 13 8 13 4 0 25 24 47
53 21 28 52 64 67 79 15 15 28 31 28 35 0 5 9 16 20 26 11 9 20 24 20 32 0 8
5 15 10 15 6 0 10 7 10 15 0 8 4 15 10 15 5 0 35 38 66 85 30 46 62 89 70 96
8 6 14 18 14 25 0 8 7 14 15 14 17 0 21 26 4 32 -6 2 -7 11 -3 22 7 18 8 18
16 -3 10 -28 28 -18 28 15 0 15 6 24 15 24 8 0 15 6 15 14 0 8 7 16 15 20 8 3
15 15 15 26 0 11 7 23 15 26 8 4 15 15 15 25 0 11 14 38 30 61 17 22 30 52 30
65 0 19 -5 23 -29 23 -16 0 -34 7 -41 16 -8 8 -25 14 -39 12 -20 -2 -25 1 -23
14 2 14 -7 19 -38 24 -22 4 -43 11 -46 15 -3 5 -13 9 -22 9 -10 0 -34 9 -55
20 -20 11 -48 20 -61 20 -13 0 -30 7 -37 16 -9 11 -23 14 -47 11 -23 -4 -35
-2 -38 8 -4 8 -30 16 -70 20 -35 4 -69 14 -75 21 -6 8 -28 14 -49 14 -21 0
-51 7 -66 15 -16 8 -51 15 -77 15 -26 0 -60 6 -75 14 -16 8 -72 15 -144 18
-65 2 -122 9 -130 16 -14 11 -573 20 -998 14z m-360 -72 c0 -5 -4 -10 -10 -10
-5 0 -10 5 -10 10 0 6 5 10 10 10 6 0 10 -4 10 -10z m1480 0 c0 -5 -4 -10 -10
-10 -5 0 -10 5 -10 10 0 6 5 10 10 10 6 0 10 -4 10 -10z m-800 -30 c0 -5 -4
-10 -9 -10 -6 0 -13 5 -16 10 -3 6 1 10 9 10 9 0 16 -4 16 -10z m857 4 c-3 -3
-12 -4 -19 -1 -8 3 -5 6 6 6 11 1 17 -2 13 -5z m-1387 -30 c0 -8 -5 -12 -10
-9 -6 4 -8 11 -5 16 9 14 15 11 15 -7z m1567 -6 c-3 -8 -6 -5 -6 6 -1 11 2 17
5 13 3 -3 4 -12 1 -19z m73 2 c0 -5 -4 -10 -10 -10 -5 0 -10 5 -10 10 0 6 5
10 10 10 6 0 10 -4 10 -10z m555 -149 c3 -5 1 -13 -5 -16 -15 -9 -43 3 -35 15
8 13 32 13 40 1z m39 -60 c3 -5 0 -14 -8 -20 -10 -9 -15 -8 -19 3 -9 22 15 37
27 17z m59 -8 c-7 -2 -21 -2 -30 0 -10 3 -4 5 12 5 17 0 24 -2 18 -5z m-20
-60 c-7 -2 -19 -2 -25 0 -7 3 -2 5 12 5 14 0 19 -2 13 -5z m-60 -30 c-7 -2
-19 -2 -25 0 -7 3 -2 5 12 5 14 0 19 -2 13 -5z m39 -65 c-6 -6 -16 -7 -22 -3
-9 6 -9 9 1 16 17 10 34 0 21 -13z m-182 2 c0 -5 -4 -10 -10 -10 -5 0 -10 5
-10 10 0 6 5 10 10 10 6 0 10 -4 10 -10z m-4622 -58 c2 -7 -3 -12 -12 -12 -9
0 -16 7 -16 16 0 17 22 14 28 -4z m4692 4 c0 -3 -4 -8 -10 -11 -5 -3 -10 -1
-10 4 0 6 5 11 10 11 6 0 10 -2 10 -4z m-40 -40 c0 -8 -4 -18 -10 -21 -5 -3
-10 3 -10 14 0 12 5 21 10 21 6 0 10 -6 10 -14z m-5093 -68 c-3 -8 -6 -5 -6 6
-1 11 2 17 5 13 3 -3 4 -12 1 -19z m2808 -48 c3 -5 -1 -10 -10 -10 -9 0 -13 5
-10 10 3 6 8 10 10 10 2 0 7 -4 10 -10z m-3042 -26 c11 -11 -3 -24 -18 -18 -8
4 -12 10 -9 15 6 11 18 12 27 3z m2737 -4 c0 -5 -5 -10 -11 -10 -5 0 -7 5 -4
10 3 6 8 10 11 10 2 0 4 -4 4 -10z m1133 -37 c-7 -2 -19 -2 -25 0 -7 3 -2 5
12 5 14 0 19 -2 13 -5z m94 1 c-3 -3 -12 -4 -19 -1 -8 3 -5 6 6 6 11 1 17 -2
13 -5z m-4012 -24 c17 -7 14 -9 -13 -9 -20 -1 -31 3 -27 9 7 12 13 12 40 0z
m2822 -6 c-3 -3 -12 -4 -19 -1 -8 3 -5 6 6 6 11 1 17 -2 13 -5z m1290 0 c-3
-3 -12 -4 -19 -1 -8 3 -5 6 6 6 11 1 17 -2 13 -5z m-4287 -34 c0 -5 -6 -10
-14 -10 -8 0 -18 5 -21 10 -3 6 3 10 14 10 12 0 21 -4 21 -10z m-90 -30 c0 -5
-4 -10 -9 -10 -6 0 -13 5 -16 10 -3 6 1 10 9 10 9 0 16 -4 16 -10z m1580 -120
c0 -5 -4 -10 -10 -10 -5 0 -10 5 -10 10 0 6 5 10 10 10 6 0 10 -4 10 -10z
m120 0 c0 -5 -4 -10 -10 -10 -5 0 -10 5 -10 10 0 6 5 10 10 10 6 0 10 -4 10
-10z m-2060 -30 c0 -5 -7 -10 -15 -10 -8 0 -15 5 -15 10 0 6 7 10 15 10 8 0
15 -4 15 -10z m1900 -30 c0 -5 -4 -10 -10 -10 -5 0 -10 5 -10 10 0 6 5 10 10
10 6 0 10 -4 10 -10z m65 0 c3 -5 1 -10 -4 -10 -6 0 -11 5 -11 10 0 6 2 10 4
10 3 0 8 -4 11 -10z m-2195 -35 c0 -17 -2 -18 -24 -9 -23 9 -20 24 4 24 11 0
20 -7 20 -15z m100 -25 c0 -5 -7 -10 -16 -10 -8 0 -12 5 -9 10 3 6 10 10 16
10 5 0 9 -4 9 -10z m890 -94 c0 -3 -4 -8 -10 -11 -5 -3 -10 -1 -10 4 0 6 5 11
10 11 6 0 10 -2 10 -4z m233 -33 c-7 -2 -19 -2 -25 0 -7 3 -2 5 12 5 14 0 19
-2 13 -5z m-1936 -155 c-3 -7 -5 -2 -5 12 0 14 2 19 5 13 2 -7 2 -19 0 -25z
m1033 -62 c0 -11 -19 -15 -25 -6 -3 5 1 10 9 10 9 0 16 -2 16 -4z m-1365 -56
c3 -5 1 -10 -4 -10 -6 0 -11 5 -11 10 0 6 2 10 4 10 3 0 8 -4 11 -10z m1450 0
c3 -5 -1 -10 -10 -10 -9 0 -13 5 -10 10 3 6 8 10 10 10 2 0 7 -4 10 -10z m-55
-4 c0 -3 -4 -8 -10 -11 -5 -3 -10 -1 -10 4 0 6 5 11 10 11 6 0 10 -2 10 -4z
m-65 -26 c3 -5 -1 -10 -10 -10 -9 0 -13 5 -10 10 3 6 8 10 10 10 2 0 7 -4 10
-10z m-1355 -4 c0 -3 -4 -8 -10 -11 -5 -3 -10 -1 -10 4 0 6 5 11 10 11 6 0 10
-2 10 -4z m65 -6 c-3 -5 -10 -10 -16 -10 -5 0 -9 5 -9 10 0 6 7 10 16 10 8 0
12 -4 9 -10z m-108 -72 c-3 -7 -5 -2 -5 12 0 14 2 19 5 13 2 -7 2 -19 0 -25z
m78 12 c-3 -5 -10 -10 -16 -10 -5 0 -9 5 -9 10 0 6 7 10 16 10 8 0 12 -4 9
-10z m605 -102 c0 -18 -2 -20 -9 -8 -6 8 -7 18 -5 22 9 14 14 9 14 -14z m280
12 c0 -5 -4 -10 -10 -10 -5 0 -10 5 -10 10 0 6 5 10 10 10 6 0 10 -4 10 -10z
m-1444 -99 c-4 -5 -13 -8 -22 -4 -11 4 -12 8 -3 20 14 16 36 2 25 -16z m1134
13 c0 -8 -5 -12 -10 -9 -6 4 -8 11 -5 16 9 14 15 11 15 -7z m-1235 -64 c3 -5
-1 -10 -10 -10 -9 0 -13 5 -10 10 3 6 8 10 10 10 2 0 7 -4 10 -10z m107 -42
c-12 -12 -35 -1 -27 12 3 5 13 6 21 3 10 -4 12 -9 6 -15z m673 -88 c-3 -5 -10
-10 -16 -10 -5 0 -9 5 -9 10 0 6 7 10 16 10 8 0 12 -4 9 -10z m-1098 -26 c-3
-3 -12 -4 -19 -1 -8 3 -5 6 6 6 11 1 17 -2 13 -5z m-77 -34 c0 -5 -2 -10 -4
-10 -3 0 -8 5 -11 10 -3 6 -1 10 4 10 6 0 11 -4 11 -10z m555 -180 c3 -5 -1
-10 -10 -10 -9 0 -13 5 -10 10 3 6 8 10 10 10 2 0 7 -4 10 -10z m-968 -36 c-3
-3 -12 -4 -19 -1 -8 3 -5 6 6 6 11 1 17 -2 13 -5z m890 0 c-3 -3 -12 -4 -19
-1 -8 3 -5 6 6 6 11 1 17 -2 13 -5z m-957 -30 c0 -2 -7 -4 -15 -4 -8 0 -15 4
-15 10 0 5 7 7 15 4 8 -4 15 -8 15 -10z m-110 -64 c0 -5 -2 -10 -4 -10 -3 0
-8 5 -11 10 -3 6 -1 10 4 10 6 0 11 -4 11 -10z m100 -24 c0 -3 -4 -8 -10 -11
-5 -3 -10 -1 -10 4 0 6 5 11 10 11 6 0 10 -2 10 -4z m300 -102 c0 -8 -5 -12
-10 -9 -6 4 -8 11 -5 16 9 14 15 11 15 -7z m-799 -57 c-1 -12 -15 -9 -19 4 -3
6 1 10 8 8 6 -3 11 -8 11 -12z m834 3 c3 -5 1 -10 -4 -10 -6 0 -11 5 -11 10 0
6 2 10 4 10 3 0 8 -4 11 -10z m-770 -60 c3 -5 1 -10 -4 -10 -6 0 -11 5 -11 10
0 6 2 10 4 10 3 0 8 -4 11 -10z m-53 -42 c-12 -12 -35 -1 -27 12 3 5 13 6 21
3 10 -4 12 -9 6 -15z m231 -55 c-7 -2 -19 -2 -25 0 -7 3 -2 5 12 5 14 0 19 -2
13 -5z m37 -28 c0 -8 -4 -15 -10 -15 -5 0 -10 7 -10 15 0 8 5 15 10 15 6 0 10
-7 10 -15z m65 5 c3 -5 1 -10 -4 -10 -6 0 -11 5 -11 10 0 6 2 10 4 10 3 0 8
-4 11 -10z m-35 -36 c0 -8 -4 -12 -10 -9 -5 3 -10 10 -10 16 0 5 5 9 10 9 6 0
10 -7 10 -16z m-800 -94 c0 -5 -4 -10 -10 -10 -5 0 -10 5 -10 10 0 6 5 10 10
10 6 0 10 -4 10 -10z m220 -90 c0 -5 -4 -10 -10 -10 -5 0 -10 5 -10 10 0 6 5
10 10 10 6 0 10 -4 10 -10z m-71 -69 c-15 -5 -22 6 -14 19 6 9 10 9 16 -1 5
-8 4 -15 -2 -18z m-609 -241 c0 -5 -4 -10 -10 -10 -5 0 -10 5 -10 10 0 6 5 10
10 10 6 0 10 -4 10 -10z m-98 -52 c-9 -9 -12 -7 -12 12 0 19 3 21 12 12 9 -9
9 -15 0 -24z m-508 -157 c7 -10 -22 -37 -30 -28 -9 8 3 37 15 37 5 0 12 -4 15
-9z m-254 -42 c0 -11 -4 -17 -10 -14 -5 3 -10 13 -10 21 0 8 5 14 10 14 6 0
10 -9 10 -21z m30 -55 c0 -8 -4 -12 -10 -9 -5 3 -10 13 -10 21 0 8 5 12 10 9
6 -3 10 -13 10 -21z"/>
<path d="M16330 11344 c-213 -15 -499 -40 -625 -55 -44 -5 -138 -16 -210 -24
-71 -8 -177 -21 -235 -30 -58 -8 -141 -20 -185 -25 -109 -15 -415 -67 -495
-85 -36 -8 -114 -24 -175 -36 -115 -22 -193 -39 -435 -93 -58 -13 -162 -38
-335 -82 -33 -8 -82 -22 -110 -29 -27 -8 -79 -22 -115 -31 -36 -9 -92 -24
-125 -34 -33 -10 -89 -26 -125 -35 -36 -10 -85 -24 -110 -31 -273 -79 -437
-129 -490 -149 -19 -7 -109 -37 -200 -65 -91 -29 -174 -56 -185 -60 -11 -5
-69 -25 -130 -45 -60 -20 -119 -40 -130 -45 -11 -5 -54 -20 -95 -34 -41 -14
-133 -46 -205 -72 -71 -25 -148 -52 -170 -59 -22 -8 -65 -23 -95 -35 -102 -39
-135 -51 -165 -60 -16 -6 -39 -14 -50 -19 -11 -5 -47 -19 -80 -31 -33 -11 -69
-25 -80 -30 -11 -6 -69 -28 -130 -51 -142 -53 -223 -83 -315 -121 -41 -16 -93
-37 -115 -45 -22 -9 -53 -21 -70 -28 -16 -7 -50 -21 -75 -30 -99 -38 -192 -75
-235 -95 -11 -6 -70 -29 -130 -53 -61 -25 -148 -60 -195 -80 -47 -19 -141 -58
-210 -87 -69 -28 -141 -58 -160 -66 -49 -21 -63 -27 -165 -69 -49 -20 -99 -40
-110 -45 -11 -5 -60 -26 -110 -46 -49 -19 -112 -46 -140 -59 -27 -12 -61 -26
-75 -30 -14 -4 -41 -16 -60 -26 -19 -11 -38 -19 -43 -19 -5 0 -32 -11 -60 -24
-29 -13 -108 -47 -177 -75 -69 -29 -141 -59 -160 -67 -43 -19 -33 -15 -270
-114 -107 -45 -215 -92 -240 -103 -47 -21 -80 -49 -80 -67 0 -5 -16 -10 -35
-10 -37 0 -46 -13 -19 -28 13 -7 14 -11 3 -17 -7 -5 -14 -4 -17 3 -2 7 -19 12
-37 12 -25 0 -38 -7 -53 -27 -18 -24 -22 -26 -37 -13 -16 13 -19 12 -33 -8 -8
-12 -25 -22 -37 -22 -15 0 -25 -7 -28 -21 -4 -16 -9 -19 -23 -11 -18 10 -54 5
-54 -8 0 -4 -16 -11 -35 -14 -19 -4 -35 -11 -35 -16 0 -5 -16 -12 -35 -16 -19
-3 -35 -11 -35 -18 0 -6 -14 -12 -32 -12 -17 -1 -37 -9 -43 -18 -7 -9 -23 -16
-36 -16 -13 0 -33 -7 -43 -15 -11 -8 -30 -15 -42 -15 -12 0 -24 -7 -28 -15 -3
-9 -18 -15 -34 -15 -16 0 -35 -7 -42 -15 -7 -8 -23 -15 -35 -15 -12 0 -28 -7
-35 -15 -7 -8 -25 -15 -40 -15 -15 0 -33 -7 -40 -15 -7 -8 -23 -15 -35 -15
-12 0 -28 -7 -35 -15 -7 -8 -23 -15 -36 -15 -12 0 -29 -7 -38 -15 -8 -8 -26
-15 -39 -15 -14 0 -30 -7 -37 -15 -7 -8 -19 -15 -27 -15 -8 0 -27 -6 -41 -14
-72 -37 -122 -56 -146 -56 -14 0 -26 -4 -26 -10 0 -5 -6 -10 -12 -10 -7 -1
-31 -9 -53 -20 -22 -11 -45 -19 -51 -20 -7 0 -25 -7 -40 -15 -16 -8 -39 -15
-51 -15 -13 0 -23 -6 -23 -13 0 -8 -13 -13 -34 -13 -18 0 -41 -8 -50 -17 -10
-9 -31 -17 -47 -17 -17 0 -37 -7 -45 -15 -9 -8 -28 -15 -44 -15 -16 0 -30 -7
-34 -15 -3 -9 -18 -15 -40 -15 -21 0 -36 -6 -40 -15 -3 -9 -19 -15 -41 -15
-22 0 -38 -6 -41 -15 -4 -10 -20 -15 -49 -15 -26 0 -47 -6 -55 -15 -7 -8 -22
-15 -34 -15 -11 0 -34 -7 -50 -15 -15 -8 -38 -15 -50 -15 -12 0 -31 -7 -42
-15 -10 -8 -33 -15 -49 -15 -17 0 -40 -7 -52 -15 -11 -8 -40 -17 -64 -21 -23
-4 -54 -13 -68 -21 -14 -7 -38 -13 -53 -13 -15 0 -29 -4 -33 -9 -3 -5 -30 -15
-60 -21 -30 -6 -57 -16 -60 -21 -4 -5 -25 -9 -48 -9 -23 0 -51 -7 -61 -15 -11
-8 -34 -15 -52 -15 -17 0 -51 -7 -74 -15 -23 -8 -60 -15 -81 -15 -26 0 -39 -5
-39 -13 0 -8 -8 -14 -17 -14 -70 1 -103 -4 -103 -15 0 -9 -22 -14 -67 -16 -37
-2 -79 -10 -94 -18 -16 -8 -50 -14 -76 -14 -26 0 -57 -7 -67 -15 -12 -9 -42
-15 -73 -15 -30 0 -70 -7 -90 -15 -19 -8 -54 -15 -77 -15 -22 -1 -61 -6 -86
-11 -25 -6 -89 -14 -143 -19 -54 -4 -103 -13 -110 -18 -7 -6 -70 -13 -142 -17
-71 -4 -162 -13 -201 -21 -57 -11 -182 -13 -598 -12 -289 1 -547 5 -574 10
-26 5 -101 13 -167 18 -174 12 -185 14 -185 21 0 4 -44 10 -98 14 -53 4 -101
11 -107 15 -5 4 -46 11 -90 15 -43 4 -88 13 -99 21 -12 8 -46 14 -81 14 -37 1
-67 6 -79 15 -12 9 -41 15 -71 15 -28 0 -56 5 -62 11 -7 7 -30 13 -53 15 -23
1 -52 10 -65 18 -14 9 -46 16 -74 16 -34 0 -51 4 -55 15 -4 11 -21 15 -66 15
-47 0 -60 3 -60 15 0 10 -9 15 -27 14 -26 -1 -137 32 -175 52 -10 5 -28 9 -42
9 -13 0 -29 6 -35 14 -7 8 -31 18 -54 21 -23 4 -51 14 -62 21 -23 16 -55 18
-55 4 0 -5 8 -10 18 -10 9 0 33 -10 52 -23 45 -30 160 -87 175 -87 7 0 18 -6
24 -14 7 -8 26 -18 42 -21 16 -4 29 -13 29 -21 0 -9 11 -14 30 -14 20 0 30 -5
30 -15 0 -8 9 -15 20 -15 11 0 37 -9 57 -20 21 -11 43 -20 50 -20 7 0 13 -4
13 -9 0 -5 16 -12 35 -15 19 -4 35 -11 35 -15 0 -5 12 -11 27 -14 38 -7 98
-30 114 -44 8 -6 31 -14 52 -18 20 -4 40 -11 43 -16 3 -5 13 -9 22 -9 9 0 30
-7 46 -15 16 -8 46 -18 67 -21 21 -4 44 -13 50 -20 6 -8 26 -14 43 -14 17 0
40 -7 50 -15 11 -8 37 -15 58 -15 25 0 41 -5 44 -15 5 -11 22 -15 65 -15 46 0
59 -3 59 -15 0 -11 13 -15 54 -15 35 0 58 -5 66 -15 7 -9 29 -15 54 -15 22 0
54 -7 70 -15 15 -8 54 -15 85 -15 32 0 65 -6 77 -14 11 -8 51 -16 89 -19 39
-2 90 -9 115 -15 25 -6 73 -12 105 -13 33 -1 80 -8 105 -15 173 -50 1575 -50
1710 0 19 7 84 14 145 16 60 1 117 6 127 11 9 5 62 12 117 15 63 4 101 11 101
18 0 7 38 12 109 14 72 1 119 7 138 17 17 9 56 15 100 15 46 0 73 4 75 12 3 7
32 14 74 16 38 3 78 11 89 18 11 8 44 14 76 14 31 0 70 7 85 15 16 8 47 15 69
15 22 0 53 7 69 15 15 8 45 15 65 15 20 0 45 6 56 14 11 7 49 16 84 20 35 3
69 10 75 15 6 5 34 12 61 16 28 4 55 11 60 15 6 4 34 11 62 15 29 4 55 11 58
15 3 5 27 12 53 16 26 3 52 10 57 14 6 5 32 11 60 16 27 4 55 13 63 20 7 8 28
14 47 14 18 0 46 7 61 15 16 8 42 15 57 15 16 0 35 7 43 15 9 8 31 15 50 15
20 0 42 7 50 15 9 8 29 15 45 15 17 0 37 7 45 15 9 8 30 15 47 15 18 0 41 7
51 15 11 8 32 15 46 15 14 0 35 7 46 15 10 8 31 15 46 15 15 0 33 7 42 15 8 8
30 15 50 15 19 0 41 6 48 13 7 8 31 17 53 20 22 4 41 11 43 17 2 5 16 10 30
10 15 0 39 6 53 14 14 7 42 16 62 20 19 4 37 11 39 16 2 4 23 11 48 15 54 8
60 13 37 30 -15 11 -8 12 48 8 56 -5 65 -3 65 11 0 9 -7 16 -16 16 -8 0 -12 5
-8 11 4 8 9 8 17 0 16 -16 84 -13 113 5 17 11 36 15 60 11 27 -5 71 5 173 38
176 58 317 102 361 114 19 5 80 23 135 41 55 17 138 42 185 55 95 28 182 54
220 66 14 4 84 24 155 43 72 20 173 47 225 62 52 15 111 30 130 34 19 4 80 19
135 33 115 29 244 59 330 77 33 7 87 18 120 26 117 27 445 77 675 104 47 5
132 16 190 22 145 18 785 17 950 0 400 -43 695 -109 1070 -241 397 -139 835
-391 1181 -681 304 -255 610 -606 734 -842 11 -21 25 -38 32 -38 10 0 159 238
222 355 12 22 30 54 41 70 11 17 23 36 27 44 12 26 273 462 321 538 26 40 75
117 110 170 34 53 62 97 62 99 0 3 292 439 355 529 27 39 62 90 79 115 17 25
93 128 170 230 184 245 221 293 285 370 29 36 60 74 70 85 53 65 186 222 195
230 6 6 42 46 81 90 248 285 768 794 1100 1080 125 107 221 211 233 253 28 91
-49 167 -233 230 -331 113 -800 154 -1345 116z m-8651 -2743 c16 -29 12 -339
-4 -349 -7 -4 -14 -34 -17 -70 -2 -35 -9 -67 -15 -70 -5 -4 -13 -25 -16 -46
-4 -22 -10 -42 -15 -45 -5 -3 -12 -23 -16 -44 -9 -50 -31 -43 -30 8 1 23 8 43
18 50 9 7 16 26 16 43 0 17 7 37 15 46 9 9 15 33 15 63 0 28 6 58 15 69 24 32
19 97 -10 128 -26 28 -32 46 -16 46 5 0 11 -9 14 -20 3 -12 11 -18 19 -15 11
5 16 82 9 158 -1 4 -9 7 -19 7 -29 0 -32 10 -8 35 26 29 33 30 45 6z m-101
-38 c16 -17 15 -20 -22 -56 -22 -20 -43 -34 -47 -30 -11 12 9 53 26 53 9 0 15
9 15 25 0 30 4 31 28 8z m-110 -55 c-7 -19 -38 -22 -38 -4 0 10 9 16 21 16 12
0 19 -5 17 -12z m-78 -28 c0 -5 -7 -10 -15 -10 -8 0 -15 5 -15 10 0 6 7 10 15
10 8 0 15 -4 15 -10z m250 0 c0 -5 -6 -10 -14 -10 -8 0 -18 5 -21 10 -3 6 3
10 14 10 12 0 21 -4 21 -10z m-347 -43 c-3 -5 -10 -4 -15 1 -6 6 -7 16 -3 22
6 9 9 9 16 -1 4 -7 5 -17 2 -22z m277 -17 c0 -16 -4 -30 -10 -30 -5 0 -10 14
-10 30 0 17 5 30 10 30 6 0 10 -13 10 -30z m-55 -6 c0 -10 -8 -20 -17 -22 -18
-3 -26 27 -11 42 12 11 28 0 28 -20z m-135 0 c0 -8 -5 -12 -10 -9 -6 4 -8 11
-5 16 9 14 15 11 15 -7z m-537 -164 c-3 -11 -12 -20 -19 -20 -16 0 -16 2 -8
24 9 24 33 20 27 -4z m-173 -44 c0 -2 -9 -6 -20 -9 -11 -3 -20 -1 -20 4 0 5 9
9 20 9 11 0 20 -2 20 -4z m130 -5 c0 -17 -18 -21 -24 -6 -3 9 0 15 9 15 8 0
15 -4 15 -9z m-90 -31 c0 -5 -4 -10 -10 -10 -5 0 -10 5 -10 10 0 6 5 10 10 10
6 0 10 -4 10 -10z m155 0 c-3 -5 -10 -10 -16 -10 -5 0 -9 5 -9 10 0 6 7 10 16
10 8 0 12 -4 9 -10z m675 -91 c0 -5 -4 -9 -10 -9 -5 0 -10 7 -10 16 0 8 5 12
10 9 6 -3 10 -10 10 -16z m-1170 -3 c0 -3 -4 -8 -10 -11 -5 -3 -10 -1 -10 4 0
6 5 11 10 11 6 0 10 -2 10 -4z m67 -2 c-3 -3 -12 -4 -19 -1 -8 3 -5 6 6 6 11
1 17 -2 13 -5z m1042 -79 c0 -16 -4 -37 -9 -45 -7 -10 -10 5 -9 50 0 45 3 59
9 45 5 -11 9 -33 9 -50z m-1079 25 c0 -5 -4 -10 -10 -10 -5 0 -10 5 -10 10 0
6 5 10 10 10 6 0 10 -4 10 -10z m-73 -25 c-7 -16 -37 -21 -37 -5 0 10 32 31
39 25 2 -2 1 -11 -2 -20z m-184 -12 c-7 -2 -19 -2 -25 0 -7 3 -2 5 12 5 14 0
19 -2 13 -5z m127 -23 c0 -5 -5 -10 -11 -10 -5 0 -7 5 -4 10 3 6 8 10 11 10 2
0 4 -4 4 -10z m-50 -34 c0 -11 -19 -15 -25 -6 -3 5 1 10 9 10 9 0 16 -2 16 -4z
m1339 -48 c-6 -12 -21 -18 -42 -17 l-32 1 26 9 c15 6 30 20 33 32 5 18 8 19
15 8 6 -9 6 -22 0 -33z m-239 17 c0 -8 -4 -15 -10 -15 -5 0 -10 7 -10 15 0 8
5 15 10 15 6 0 10 -7 10 -15z m90 6 c0 -5 -9 -11 -20 -14 -13 -3 -20 0 -20 9
0 8 9 14 20 14 11 0 20 -4 20 -9z m-163 -37 c-3 -3 -12 -4 -19 -1 -8 3 -5 6 6
6 11 1 17 -2 13 -5z m203 -14 c-6 -11 -17 -20 -25 -20 -13 0 -13 3 -3 20 7 11
19 20 26 20 10 0 10 -5 2 -20z m-95 -9 c9 -16 -10 -21 -51 -14 -36 6 -37 7
-14 14 37 10 58 10 65 0z m-131 -39 c-6 -4 -13 -15 -17 -24 -8 -22 -37 -24
-37 -3 0 7 8 19 18 24 20 12 53 15 36 3z m-1673 -61 c-7 -5 -17 -15 -22 -22
-6 -10 -9 -8 -9 9 0 16 6 22 23 22 16 0 18 -3 8 -9z m79 -21 c0 -11 -4 -20
-10 -20 -5 0 -10 9 -10 20 0 11 5 20 10 20 6 0 10 -9 10 -20z m-250 -10 c0 -5
-12 -10 -26 -10 -14 0 -23 4 -19 10 3 6 15 10 26 10 10 0 19 -4 19 -10z m1080
-54 c0 -3 -4 -8 -10 -11 -5 -3 -10 -1 -10 4 0 6 5 11 10 11 6 0 10 -2 10 -4z
m40 -70 c0 -11 -19 -15 -25 -6 -3 5 1 10 9 10 9 0 16 -2 16 -4z m97 -2 c-3 -3
-12 -4 -19 -1 -8 3 -5 6 6 6 11 1 17 -2 13 -5z m-1697 -34 c-19 -13 -30 -13
-30 0 0 6 10 10 23 10 18 0 19 -2 7 -10z m-4385 -19 c7 -12 -12 -24 -25 -16
-11 7 -4 25 10 25 5 0 11 -4 15 -9z m155 -40 c0 -18 -18 -21 -30 -6 -10 13 -9
15 9 15 11 0 21 -4 21 -9z m120 -36 c0 -8 -4 -15 -9 -15 -5 0 -11 7 -15 15 -3
9 0 15 9 15 8 0 15 -7 15 -15z m4987 -107 c-3 -8 -6 -5 -6 6 -1 11 2 17 5 13
3 -3 4 -12 1 -19z m-310 -70 c-3 -7 -5 -2 -5 12 0 14 2 19 5 13 2 -7 2 -19 0
-25z m-3451 -65 c-11 -11 -17 4 -9 23 7 18 8 18 11 1 2 -10 1 -21 -2 -24z
m259 -53 c3 -5 -1 -10 -9 -10 -9 0 -16 5 -16 10 0 6 4 10 9 10 6 0 13 -4 16
-10z m2188 -67 c-7 -2 -19 -2 -25 0 -7 3 -2 5 12 5 14 0 19 -2 13 -5z m-193
-63 c0 -5 -2 -10 -4 -10 -3 0 -8 5 -11 10 -3 6 -1 10 4 10 6 0 11 -4 11 -10z"/>
<path d="M10703 8259 c-7 -7 -69 -13 -160 -15 -193 -6 -233 -11 -233 -30 0
-10 -5 -12 -12 -8 -20 12 -176 4 -221 -12 -22 -8 -66 -14 -98 -14 -32 0 -73
-6 -91 -14 -18 -8 -67 -19 -108 -25 -138 -20 -193 -31 -204 -40 -6 -5 -37 -12
-69 -16 -32 -3 -74 -13 -92 -21 -19 -8 -49 -14 -67 -14 -18 0 -42 -7 -52 -15
-11 -9 -41 -15 -68 -15 -34 0 -50 -5 -54 -15 -5 -11 -21 -15 -60 -15 -30 0
-54 -4 -54 -9 0 -5 -24 -12 -52 -16 -29 -4 -56 -11 -59 -16 -3 -5 -30 -12 -60
-16 -30 -3 -63 -12 -74 -19 -11 -8 -35 -14 -53 -14 -18 0 -40 -7 -48 -15 -9
-9 -34 -15 -60 -15 -32 0 -44 -4 -44 -15 0 -11 -12 -15 -44 -15 -29 0 -51 -6
-62 -17 -11 -11 -29 -16 -51 -14 -20 1 -42 -4 -51 -12 -9 -8 -38 -18 -64 -21
-26 -4 -50 -11 -53 -17 -4 -5 -18 -9 -33 -9 -15 0 -40 -7 -56 -15 -15 -8 -38
-15 -50 -15 -11 0 -33 -6 -48 -14 -15 -8 -41 -17 -58 -21 -17 -4 -43 -13 -58
-21 -15 -8 -37 -14 -49 -14 -12 0 -34 -6 -50 -14 -41 -20 -125 -46 -149 -46
-12 0 -27 -7 -34 -15 -7 -8 -27 -15 -45 -15 -19 0 -35 -5 -37 -11 -2 -6 -25
-13 -52 -16 -37 -5 -47 -9 -43 -22 3 -13 -4 -15 -39 -13 -28 3 -51 -2 -66 -12
-12 -9 -43 -16 -68 -16 -41 0 -103 -16 -155 -40 -45 -20 -445 -149 -675 -217
-30 -9 -73 -22 -95 -29 -22 -6 -69 -20 -105 -29 -36 -10 -78 -22 -95 -27 -16
-5 -52 -16 -80 -23 -27 -7 -77 -21 -110 -30 -33 -9 -82 -23 -110 -30 -27 -7
-104 -27 -170 -45 -66 -17 -147 -38 -180 -45 -33 -8 -98 -23 -145 -35 -86 -22
-250 -61 -415 -99 -116 -26 -323 -69 -399 -82 -33 -6 -62 -12 -66 -14 -4 -2
-33 -9 -66 -14 -32 -6 -108 -20 -169 -31 -60 -12 -150 -27 -200 -35 -49 -8
-133 -21 -185 -30 -95 -16 -202 -30 -445 -59 -380 -46 -983 -23 -1525 58 -52
8 -129 19 -170 25 -41 6 -109 18 -150 26 -41 8 -115 22 -165 30 -49 9 -120 23
-157 32 -46 10 -72 12 -84 5 -16 -9 -12 -11 21 -17 22 -4 45 -12 51 -17 18
-14 137 -47 449 -123 72 -18 279 -60 390 -80 168 -29 193 -34 295 -49 357 -52
609 -74 955 -81 391 -9 791 7 1145 46 52 6 138 14 190 19 52 5 124 14 160 20
36 5 144 22 240 36 96 15 211 32 255 40 44 7 109 18 145 23 71 12 196 35 305
56 39 7 108 21 155 30 47 9 110 23 140 30 30 8 118 28 195 46 210 48 352 87
395 109 22 11 52 20 67 20 15 1 39 7 53 15 14 8 42 14 62 15 21 0 52 7 70 14
18 8 54 18 81 21 26 3 47 10 47 15 0 5 26 12 58 16 31 3 62 10 67 14 6 4 35
10 65 14 30 4 57 11 60 17 4 5 28 12 56 15 27 4 51 11 54 15 3 5 33 11 65 15
33 4 66 13 73 21 7 7 32 13 55 13 23 0 51 7 61 15 11 8 39 15 62 15 25 0 47 6
54 15 7 9 30 15 54 15 22 0 50 7 60 15 11 8 41 15 67 15 32 0 49 5 53 15 3 9
19 15 41 15 20 0 52 7 72 15 19 8 47 15 60 15 14 0 37 6 51 14 15 8 48 18 75
21 26 3 47 10 47 14 0 5 25 11 57 14 31 3 59 11 63 17 4 7 31 14 60 16 30 3
58 9 64 14 7 5 35 12 64 16 29 4 55 10 57 15 3 4 30 11 60 14 31 4 58 11 60
16 3 4 27 11 53 14 26 4 61 13 79 21 17 8 47 14 66 14 19 0 48 7 63 15 16 8
48 15 71 15 33 0 43 4 48 21 4 13 11 17 18 11 19 -13 118 -2 124 14 4 10 23
14 65 14 39 0 64 5 74 15 10 9 34 15 63 15 26 0 56 7 67 15 11 8 42 14 74 15
31 0 64 6 75 14 11 7 51 16 89 19 38 4 74 11 80 17 5 5 26 10 46 10 19 0 53 5
75 11 22 6 80 15 128 20 49 5 97 14 108 19 10 6 63 13 116 17 54 3 103 10 109
14 6 5 67 11 135 15 102 5 128 9 145 25 11 11 24 16 28 12 11 -11 344 -4 386
8 62 18 844 -7 885 -28 11 -6 58 -14 105 -18 47 -4 87 -11 90 -16 3 -4 36 -11
74 -14 37 -3 81 -12 97 -20 15 -8 46 -15 68 -15 21 0 41 -5 43 -10 2 -6 27
-13 56 -17 31 -3 56 -12 59 -19 3 -9 22 -14 53 -14 30 0 52 -6 60 -15 18 -22
50 -19 105 10 26 14 67 28 91 32 24 3 44 10 44 14 0 5 7 9 15 9 21 0 19 17 -3
22 -10 3 -28 -3 -40 -12 -16 -13 -33 -17 -62 -13 -26 4 -40 2 -40 -6 0 -6 -9
-11 -20 -11 -10 0 -23 -7 -28 -16 -12 -22 -32 -10 -25 15 3 13 -2 20 -17 24
-12 3 -19 10 -15 16 10 17 35 13 35 -5 0 -12 6 -15 23 -10 12 3 28 6 35 6 6 0
12 10 12 21 0 18 -5 21 -30 17 -29 -4 -42 6 -18 14 19 7 0 38 -23 38 -11 0
-29 -10 -38 -21 -15 -19 -20 -20 -41 -9 l-24 13 22 8 c12 5 22 13 22 19 0 5
16 10 35 10 24 0 35 5 35 15 0 8 -8 15 -19 15 -10 0 -24 7 -31 15 -7 8 -21 15
-32 15 -10 0 -21 7 -24 15 -4 8 -18 15 -34 15 -16 0 -30 7 -34 15 -3 9 -18 15
-36 15 -19 0 -30 5 -30 14 0 9 -12 16 -32 18 -20 2 -32 8 -30 16 1 8 -11 12
-38 12 -22 0 -42 6 -47 13 -11 19 -46 26 -67 15 -12 -7 -16 -5 -16 12 0 14 -6
20 -23 20 -13 0 -32 7 -43 15 -10 8 -33 15 -51 15 -17 0 -38 7 -47 15 -8 8
-25 15 -38 15 -13 0 -50 9 -83 20 -110 35 -167 50 -199 50 -17 0 -40 7 -50 15
-11 9 -42 15 -70 15 -28 1 -69 7 -91 15 -22 8 -69 15 -105 15 -36 0 -83 7
-105 15 -26 9 -82 14 -160 15 -66 0 -137 5 -158 11 -33 9 -41 8 -53 -8 -13
-17 -13 -17 -14 4 0 22 -1 22 -223 23 -152 0 -226 -3 -234 -11z m-1208 -209
c3 -5 -3 -10 -14 -10 -12 0 -21 5 -21 10 0 6 6 10 14 10 8 0 18 -4 21 -10z
m79 -11 c-3 -5 -10 -7 -15 -3 -5 3 -7 10 -3 15 3 5 10 7 15 3 5 -3 7 -10 3
-15z m2676 -19 c0 -5 -5 -10 -11 -10 -5 0 -7 5 -4 10 3 6 8 10 11 10 2 0 4 -4
4 -10z m-2807 -7 c-7 -2 -19 -2 -25 0 -7 3 -2 5 12 5 14 0 19 -2 13 -5z m-60
-39 c-4 -12 -8 -13 -14 -3 -9 15 -2 32 11 24 5 -3 6 -13 3 -21z m137 16 c11
-7 7 -10 -18 -10 -20 0 -31 4 -27 10 8 13 26 13 45 0z m-288 -35 c0 -5 -5 -11
-11 -13 -6 -2 -11 4 -11 13 0 9 5 15 11 13 6 -2 11 -8 11 -13z m3178 -1 c0
-17 -22 -14 -28 4 -2 7 3 12 12 12 9 0 16 -7 16 -16z m120 -54 c0 -5 -10 -10
-22 -10 -19 0 -20 2 -8 10 19 13 30 13 30 0z m-85 -30 c4 -6 -6 -10 -22 -10
-22 0 -25 2 -13 10 19 12 27 12 35 0z m-1641 -15 c-4 -10 -10 -12 -18 -7 -6 5
-18 12 -26 15 -8 3 -1 6 17 6 25 1 31 -2 27 -14z m203 9 c-3 -3 -12 -4 -19 -1
-8 3 -5 6 6 6 11 1 17 -2 13 -5z m1126 -1 c-7 -2 -19 -2 -25 0 -7 3 -2 5 12 5
14 0 19 -2 13 -5z m57 -13 c0 -11 -4 -20 -10 -20 -5 0 -10 9 -10 20 0 11 5 20
10 20 6 0 10 -9 10 -20z m310 -25 c0 -8 -4 -17 -10 -20 -6 -4 -10 5 -10 20 0
15 4 24 10 20 6 -3 10 -12 10 -20z m-124 6 c-3 -5 -15 -7 -26 -4 -28 7 -25 13
6 13 14 0 23 -4 20 -9z m-1632 -17 c8 -22 -4 -40 -15 -23 -11 18 -11 39 0 39
5 0 12 -7 15 -16z m1386 -9 c0 -8 -4 -15 -9 -15 -13 0 -22 16 -14 24 11 11 23
6 23 -9z m708 -3 c2 -7 -6 -12 -17 -12 -21 0 -27 11 -14 24 9 9 26 2 31 -12z
m-1998 4 c0 -3 -4 -8 -10 -11 -5 -3 -10 -1 -10 4 0 6 5 11 10 11 6 0 10 -2 10
-4z m1488 -29 c12 -3 10 -5 -5 -6 -18 -1 -23 4 -22 22 1 15 3 17 6 5 2 -9 12
-19 21 -21z m115 -2 c1 -5 -6 -11 -15 -13 -11 -2 -18 3 -18 13 0 17 30 18 33
0z m-1756 -1 c-3 -3 -12 -4 -19 -1 -8 3 -5 6 6 6 11 1 17 -2 13 -5z m1843 -4
c0 -5 -5 -10 -11 -10 -5 0 -7 5 -4 10 3 6 8 10 11 10 2 0 4 -4 4 -10z m-4020
-31 c0 -5 -9 -9 -20 -9 -19 0 -26 11 -14 23 8 8 34 -3 34 -14z m4230 -43 c0
-2 -7 -7 -16 -10 -8 -3 -12 -2 -9 4 6 10 25 14 25 6z m-2985 -46 c3 -5 1 -10
-4 -10 -6 0 -11 5 -11 10 0 6 2 10 4 10 3 0 8 -4 11 -10z m-270 -59 c7 -12
-12 -24 -25 -16 -11 7 -4 25 10 25 5 0 11 -4 15 -9z m-1676 -55 c-1 -17 -2
-17 -6 -3 -2 9 -13 17 -24 17 -11 0 -18 4 -15 9 11 17 46 -1 45 -23z m1451 9
c0 -8 -2 -15 -4 -15 -2 0 -6 7 -10 15 -3 8 -1 15 4 15 6 0 10 -7 10 -15z
m-1930 -139 c0 -3 -4 -8 -10 -11 -5 -3 -10 -1 -10 4 0 6 5 11 10 11 6 0 10 -2
10 -4z m980 -30 c0 -3 -4 -8 -10 -11 -5 -3 -10 -1 -10 4 0 6 5 11 10 11 6 0
10 -2 10 -4z m-1290 -310 c0 -3 -4 -8 -10 -11 -5 -3 -10 -1 -10 4 0 6 5 11 10
11 6 0 10 -2 10 -4z"/>
<path d="M12973 7756 c9 -7 17 -20 17 -29 0 -21 30 -37 70 -37 36 0 38 23 2
28 -11 2 -26 10 -32 18 -7 8 -19 14 -26 14 -8 0 -14 5 -14 10 0 6 -8 10 -17
10 -17 -1 -17 -1 0 -14z"/>
<path d="M13132 7643 c-15 -3 -22 -10 -20 -21 5 -26 32 -25 45 3 6 14 8 24 5
24 -4 -1 -17 -4 -30 -6z"/>
<path d="M13170 7601 c-14 -17 -35 -30 -46 -31 -12 0 -27 -7 -34 -15 -7 -8
-21 -15 -31 -15 -11 0 -19 -4 -19 -10 0 -16 68 -12 95 6 28 18 55 13 55 -11 0
-10 -10 -15 -30 -15 -16 0 -30 -4 -30 -10 0 -5 18 -10 40 -10 29 0 40 -4 40
-15 0 -17 65 -22 75 -5 4 6 11 8 16 4 6 -4 3 -14 -7 -25 -17 -18 -16 -19 24
-19 32 0 42 -4 42 -16 0 -12 7 -15 30 -12 22 3 31 0 35 -13 3 -9 20 -20 40
-23 18 -4 35 -10 37 -14 4 -9 99 -54 104 -49 4 3 -15 23 -87 90 -10 9 -23 17
-29 17 -5 0 -10 7 -10 15 0 8 -6 15 -12 15 -7 0 -27 14 -45 30 -18 17 -36 30
-41 30 -6 0 -12 7 -16 15 -3 8 -12 15 -21 15 -8 0 -15 7 -15 15 0 8 -9 15 -20
15 -11 0 -23 7 -26 15 -8 20 -44 19 -44 -1 0 -9 17 -22 41 -32 34 -13 38 -17
23 -23 -35 -14 -66 -10 -71 10 -2 10 -16 24 -29 30 -32 14 -32 41 0 41 14 0
28 5 31 10 3 6 2 10 -4 10 -5 0 -15 2 -23 5 -7 3 -25 -8 -38 -24z m200 -140
c0 -17 -18 -21 -24 -6 -3 9 0 15 9 15 8 0 15 -4 15 -9z"/>
<path d="M13052 7594 c2 -11 11 -20 22 -22 13 -3 17 1 14 14 -2 11 -11 20 -22
22 -13 3 -17 -1 -14 -14z"/>
<path d="M12988 7581 c-33 -21 -27 -31 19 -31 29 0 33 3 33 25 0 29 -14 31
-52 6z"/>
<path d="M11565 7570 c-152 -8 -277 -22 -425 -46 -132 -22 -449 -83 -485 -94
-16 -5 -104 -28 -195 -50 -91 -23 -189 -48 -217 -56 -29 -8 -77 -20 -105 -28
-244 -66 -305 -84 -393 -111 -22 -7 -69 -20 -105 -30 -36 -9 -83 -23 -105 -30
-22 -7 -67 -21 -100 -30 -33 -9 -78 -23 -100 -29 -22 -7 -74 -24 -115 -36 -41
-13 -84 -29 -95 -37 -11 -7 -27 -13 -37 -13 -9 0 -32 -6 -50 -14 -18 -8 -67
-24 -108 -36 -41 -12 -83 -26 -92 -31 -10 -5 -27 -9 -39 -9 -11 0 -35 -6 -52
-14 -30 -14 -50 -19 -182 -49 -27 -6 -53 -15 -56 -20 -4 -5 -28 -12 -54 -14
-26 -3 -49 -12 -52 -19 -3 -9 -22 -14 -52 -14 -25 0 -55 -7 -65 -15 -11 -8
-34 -15 -52 -15 -17 0 -37 -7 -44 -15 -7 -8 -29 -15 -49 -15 -20 -1 -47 -7
-61 -15 -14 -8 -38 -15 -55 -15 -16 0 -39 -7 -49 -15 -11 -8 -37 -15 -57 -15
-21 0 -44 -7 -53 -15 -8 -8 -23 -15 -34 -15 -39 0 -82 -13 -82 -24 0 -8 -13
-11 -35 -8 -20 2 -45 -2 -58 -10 -12 -8 -39 -18 -59 -22 -20 -4 -50 -13 -65
-21 -15 -8 -44 -15 -64 -15 -20 0 -42 -7 -49 -15 -7 -9 -29 -15 -51 -15 -21 0
-40 -4 -44 -9 -3 -6 -26 -13 -50 -17 -25 -3 -45 -10 -45 -14 0 -5 -24 -12 -54
-15 -32 -4 -57 -13 -60 -21 -4 -10 -22 -14 -59 -14 -54 0 -54 0 -50 -27 3 -21
2 -24 -6 -13 -12 18 -76 15 -105 -5 -11 -8 -39 -15 -62 -15 -28 0 -44 -5 -48
-15 -3 -9 -18 -15 -38 -15 -39 0 -51 -7 -67 -38 -12 -23 -13 -23 -26 -5 -12
15 -17 16 -34 6 -13 -8 -22 -9 -26 -3 -10 15 -35 12 -35 -5 0 -8 9 -15 21 -15
11 0 18 -4 14 -9 -3 -6 -37 -8 -78 -5 -51 4 -68 3 -57 -5 24 -16 3 -25 -55
-22 -30 1 -55 -2 -55 -7 0 -5 -26 -13 -57 -17 -31 -4 -66 -13 -77 -20 -12 -6
-41 -13 -66 -14 -24 -1 -48 -7 -51 -13 -4 -7 -34 -14 -66 -16 -32 -2 -67 -10
-78 -18 -29 -21 -10 -29 28 -11 18 9 42 16 53 16 37 -1 129 14 141 23 6 5 39
11 73 13 35 3 70 11 78 18 12 10 16 9 20 -1 3 -10 7 -8 17 5 10 13 24 16 60
14 31 -2 51 2 56 10 4 8 38 15 86 18 45 4 77 10 75 16 -1 6 21 12 50 16 72 7
120 28 113 50 -7 21 6 31 24 20 9 -6 10 -11 2 -15 -23 -14 -10 -26 29 -26 43
0 54 14 19 23 -12 3 -18 10 -14 16 9 16 41 13 55 -4 9 -11 27 -13 78 -8 68 6
87 18 87 55 0 10 5 17 10 17 6 0 9 -9 8 -20 -2 -16 4 -19 41 -19 38 0 43 3 39
18 -4 16 2 18 61 14 51 -3 69 -1 81 12 10 10 33 16 59 16 29 0 48 6 60 19 13
14 26 17 64 13 36 -3 51 0 61 12 8 9 29 16 50 16 20 0 49 7 65 15 15 8 42 15
58 15 16 0 39 5 51 12 12 6 38 15 57 19 19 4 49 12 65 18 79 27 133 43 165 48
19 3 40 9 45 13 6 4 31 11 57 14 26 4 50 11 53 16 3 4 23 11 46 15 22 4 53 13
67 21 15 8 38 14 52 14 14 1 36 7 50 15 14 8 37 14 51 15 15 0 40 7 55 15 16
8 39 15 52 15 12 0 22 4 22 10 0 5 17 12 38 15 20 4 51 13 69 21 17 8 42 14
56 14 13 0 30 7 37 15 7 8 29 15 50 15 21 0 43 7 50 15 7 8 27 15 45 15 18 0
38 7 45 15 7 8 23 15 37 15 13 0 36 6 51 13 15 8 58 19 96 26 39 7 108 24 155
38 101 30 319 89 376 102 22 5 74 18 115 29 41 11 140 37 220 57 80 19 170 42
200 50 125 32 441 106 555 130 44 9 98 21 120 26 39 10 57 13 240 45 88 15
203 32 355 53 234 32 698 32 900 0 36 -5 97 -14 136 -20 95 -12 282 -54 429
-94 97 -27 133 -33 146 -24 9 5 4 11 -16 19 -17 6 -39 15 -50 20 -11 5 -50 21
-87 35 -451 167 -871 224 -1433 195z m-3930 -1060 c3 -5 -1 -10 -10 -10 -9 0
-13 5 -10 10 3 6 8 10 10 10 2 0 7 -4 10 -10z m-102 -67 c-7 -2 -21 -2 -30 0
-10 3 -4 5 12 5 17 0 24 -2 18 -5z m-363 -57 c0 -3 -4 -8 -10 -11 -5 -3 -10
-1 -10 4 0 6 5 11 10 11 6 0 10 -2 10 -4z m-192 -63 c-10 -2 -26 -2 -35 0 -10
3 -2 5 17 5 19 0 27 -2 18 -5z m-238 -58 c0 -8 -6 -15 -14 -15 -17 0 -28 14
-19 24 12 12 33 6 33 -9z"/>
<path d="M13190 7280 c0 -5 5 -10 11 -10 5 0 7 5 4 10 -3 6 -8 10 -11 10 -2 0
-4 -4 -4 -10z"/>
<path d="M11500 7100 c-196 -16 -322 -30 -378 -39 -31 -6 -104 -18 -162 -27
-96 -15 -250 -44 -420 -79 -92 -19 -177 -40 -315 -76 -66 -17 -145 -37 -175
-44 -80 -20 -274 -72 -312 -83 -18 -6 -58 -17 -88 -26 -102 -28 -430 -127
-495 -148 -102 -33 -420 -125 -495 -144 -55 -13 -197 -49 -380 -97 -52 -13
-131 -32 -175 -41 -44 -10 -107 -24 -140 -31 -193 -45 -417 -93 -755 -161 -41
-8 -95 -19 -120 -24 -25 -5 -72 -14 -105 -19 -58 -10 -194 -35 -360 -67 -44
-8 -113 -19 -154 -25 -41 -5 -78 -12 -82 -15 -4 -2 -38 -9 -76 -14 -37 -5
-129 -18 -203 -30 -176 -27 -323 -48 -435 -60 -49 -5 -121 -14 -160 -20 -511
-70 -1524 -100 -2070 -60 -414 31 -828 82 -1050 129 -83 18 -297 62 -340 71
-53 10 -273 68 -305 79 -14 5 -59 19 -100 31 -148 43 -175 52 -195 60 -31 14
-68 16 -72 5 -3 -11 158 -91 264 -131 35 -13 71 -28 80 -33 21 -10 27 -12 273
-96 267 -90 335 -110 585 -171 55 -14 123 -31 151 -39 28 -8 61 -15 73 -15 13
0 46 -6 74 -14 29 -7 97 -21 152 -31 55 -9 134 -23 175 -31 153 -29 411 -60
745 -91 148 -14 289 -17 640 -17 432 0 479 2 905 38 263 22 833 101 1165 161
44 8 143 26 220 40 77 14 165 30 195 35 30 6 93 17 140 26 47 8 114 22 150 29
36 8 121 26 190 40 69 15 161 35 205 45 44 11 139 33 210 50 72 17 155 37 185
45 107 29 255 66 295 75 22 5 76 18 120 31 44 12 98 25 120 30 22 4 76 18 120
29 44 12 107 28 140 35 33 7 103 22 155 34 52 12 117 26 143 31 27 6 52 12 56
14 4 3 34 10 67 15 32 6 138 27 234 47 96 20 209 42 250 49 41 8 113 21 160
30 484 90 990 153 1585 196 277 20 916 2 1125 -30 36 -6 99 -15 140 -21 203
-28 536 -104 685 -156 28 -9 64 -20 80 -25 31 -8 161 -53 250 -87 101 -38 323
-138 455 -205 124 -63 368 -203 380 -217 3 -3 23 -17 45 -30 22 -13 74 -49
117 -79 42 -31 86 -63 98 -71 21 -14 103 -79 199 -159 24 -20 101 -84 170
-144 69 -59 130 -106 136 -104 27 9 12 50 -51 143 -66 97 -174 241 -224 298
-212 244 -381 405 -606 577 -118 90 -276 199 -290 199 -4 0 -15 6 -23 14 -47
42 -365 192 -571 271 -52 20 -102 40 -110 44 -9 5 -31 12 -50 16 -19 4 -39 11
-45 15 -5 4 -28 12 -50 18 -22 6 -65 18 -95 27 -112 33 -194 54 -355 90 -69
15 -103 21 -260 50 -88 16 -254 38 -415 55 -129 14 -710 21 -840 10z"/>
<path d="M11253 6347 c-14 -7 -76 -14 -160 -16 -76 -1 -146 -7 -156 -13 -10
-5 -60 -12 -110 -15 -51 -2 -110 -10 -132 -17 -22 -7 -74 -13 -115 -15 -41 -1
-95 -8 -120 -16 -25 -7 -78 -16 -119 -19 -41 -3 -79 -10 -85 -16 -5 -5 -33
-10 -61 -10 -27 -1 -68 -7 -90 -15 -22 -8 -58 -15 -81 -15 -22 0 -63 -7 -90
-15 -27 -8 -75 -17 -106 -21 -32 -4 -58 -10 -58 -14 0 -4 -26 -10 -58 -13 -32
-4 -72 -13 -88 -22 -16 -8 -50 -15 -76 -15 -26 0 -49 -4 -52 -9 -3 -5 -31 -12
-61 -16 -31 -3 -68 -13 -83 -21 -15 -7 -43 -14 -62 -14 -19 -1 -46 -7 -60 -15
-14 -8 -41 -14 -61 -15 -20 0 -50 -7 -65 -15 -16 -8 -46 -15 -66 -15 -21 0
-38 -4 -38 -10 0 -5 -17 -12 -37 -15 -21 -3 -54 -11 -73 -17 -19 -6 -53 -15
-75 -19 -40 -7 -125 -35 -157 -50 -10 -5 -27 -9 -38 -9 -11 0 -20 -4 -20 -8 0
-10 142 3 166 16 11 5 42 10 69 11 28 0 66 6 85 11 19 6 71 14 115 17 44 2 85
9 91 14 7 5 62 14 124 19 61 6 120 15 130 20 10 6 58 10 105 10 47 0 95 4 105
10 22 12 91 18 233 19 102 1 107 2 107 22 0 18 4 20 23 14 34 -12 89 -8 98 7
6 9 9 10 9 1 0 -10 136 -13 598 -15 434 -2 603 -6 613 -15 9 -7 78 -12 196
-15 128 -2 186 -7 195 -15 8 -9 49 -13 129 -13 91 0 121 -3 133 -15 11 -11 38
-15 102 -15 63 0 92 -4 104 -15 10 -9 41 -15 85 -16 39 -1 80 -8 92 -15 12 -8
54 -16 94 -18 39 -2 74 -8 78 -13 3 -6 34 -14 69 -18 34 -4 62 -10 62 -15 0
-4 28 -10 62 -14 34 -3 64 -10 67 -15 3 -5 29 -12 56 -16 28 -4 55 -11 60 -15
6 -4 30 -12 55 -18 95 -23 136 -35 162 -48 14 -8 37 -14 51 -14 13 0 30 -6 36
-14 6 -7 29 -16 51 -20 22 -3 40 -11 40 -16 0 -6 14 -10 30 -10 18 0 33 -6 36
-15 4 -9 19 -15 40 -15 22 0 37 -6 40 -15 4 -8 17 -15 29 -15 13 0 30 -7 38
-15 8 -7 26 -17 41 -21 14 -3 29 -10 32 -15 3 -5 13 -9 23 -9 10 0 24 -7 31
-15 7 -8 20 -15 30 -15 9 0 27 -9 40 -20 13 -11 31 -20 42 -20 10 0 18 -4 18
-9 0 -5 14 -14 30 -21 17 -7 30 -15 30 -19 0 -3 20 -15 45 -26 25 -11 45 -23
45 -27 0 -5 10 -13 23 -18 12 -6 36 -19 52 -30 17 -11 40 -24 53 -30 12 -5 22
-14 22 -20 0 -5 7 -10 15 -10 9 0 18 -7 21 -15 4 -8 15 -15 25 -15 11 0 22 -7
25 -15 4 -8 11 -15 18 -15 7 0 23 -13 36 -30 14 -16 31 -29 38 -30 6 0 12 -4
12 -8 0 -5 18 -20 40 -35 33 -21 42 -24 46 -12 4 8 10 12 15 9 5 -2 3 -14 -3
-24 -16 -25 -3 -38 22 -22 11 7 20 8 20 3 0 -5 -6 -11 -12 -14 -8 -3 0 -17 22
-38 l35 -33 3 28 c2 15 -4 36 -12 45 -9 10 -16 31 -16 47 0 18 -7 34 -19 41
-13 8 -17 19 -14 37 4 19 1 26 -11 26 -9 0 -16 8 -16 19 0 23 -38 91 -51 91
-5 0 -9 6 -9 14 0 7 -7 19 -15 26 -8 7 -15 21 -15 31 0 11 -7 19 -15 19 -8 0
-15 9 -15 20 0 11 -6 20 -13 20 -7 0 -21 15 -31 33 -22 37 -29 46 -91 109 -25
26 -45 52 -45 57 0 6 -4 11 -9 11 -5 0 -37 27 -70 60 -34 33 -63 60 -65 60 -3
0 -22 16 -43 35 -21 19 -41 35 -45 35 -4 0 -22 14 -40 30 -18 17 -36 30 -41
30 -5 0 -26 14 -47 30 -21 17 -43 30 -49 30 -7 0 -14 7 -17 15 -4 8 -14 15
-24 15 -10 0 -20 7 -24 15 -3 8 -15 15 -26 15 -11 0 -23 7 -26 15 -4 8 -14 15
-24 15 -10 0 -25 7 -34 15 -8 8 -21 15 -29 15 -8 0 -20 7 -27 15 -7 8 -19 15
-26 15 -8 0 -31 9 -51 20 -21 11 -43 20 -50 20 -7 0 -13 5 -13 10 0 6 -8 10
-18 10 -10 0 -27 7 -38 15 -10 8 -31 15 -45 15 -15 0 -32 7 -39 15 -7 8 -28
17 -49 21 -20 3 -50 12 -68 20 -17 8 -38 14 -46 14 -8 0 -31 7 -50 15 -20 8
-47 15 -61 15 -13 0 -37 7 -52 15 -16 8 -43 15 -60 15 -17 0 -51 7 -74 15 -23
8 -65 15 -93 15 -29 0 -57 6 -66 14 -11 10 -53 15 -140 18 -83 3 -126 9 -129
16 -6 18 -918 16 -949 -1z m2620 -764 c-7 -2 -19 -2 -25 0 -7 3 -2 5 12 5 14
0 19 -2 13 -5z m100 -30 c-7 -2 -19 -2 -25 0 -7 3 -2 5 12 5 14 0 19 -2 13 -5z
m12 -63 c-3 -5 -13 -10 -21 -10 -8 0 -14 5 -14 10 0 6 9 10 21 10 11 0 17 -4
14 -10z m-160 -80 c3 -5 -1 -10 -10 -10 -9 0 -13 5 -10 10 3 6 8 10 10 10 2 0
7 -4 10 -10z"/>
<path d="M1330 6170 c0 -5 7 -10 16 -10 8 0 12 5 9 10 -3 6 -10 10 -16 10 -5
0 -9 -4 -9 -10z"/>
<path d="M5860 6070 c-8 -5 -11 -12 -7 -17 5 -4 11 -2 15 4 4 6 18 13 32 16
l25 4 -25 1 c-14 1 -32 -2 -40 -8z"/>
<path d="M5703 6043 c9 -2 25 -2 35 0 9 3 1 5 -18 5 -19 0 -27 -2 -17 -5z"/>
<path d="M5608 6013 c7 -3 16 -2 19 1 4 3 -2 6 -13 5 -11 0 -14 -3 -6 -6z"/>
</g>
</svg>
